<svg width="368" height="122" viewBox="0 0 368 122" fill="none" xmlns="http://www.w3.org/2000/svg">
    <path d="M7.88 40.96L6.728 30.976H26.056L31.944 40.832V40.96H7.88ZM20.68 88.448L1.608 40.32L6.728 30.976L32.328 85.888V86.016L20.68 88.448ZM6.984 96L0.968 86.144V86.016H32.328L26.44 96H6.984ZM68.89 96V30.976H80.154V96H69.018H68.89ZM48.026 96L42.138 85.248V85.12H68.89V96H48.026ZM42.138 85.12V33.92L53.274 30.208H53.402V85.12H42.138ZM91.888 96V36.864L103.024 30.976H103.152V96H91.888ZM103.152 41.856V30.976H116.464L122.48 41.728V41.856H103.152ZM140.143 41.856V30.976H161.775L167.663 41.728V41.856H140.143ZM134.767 96L128.879 85.248V85.12H156.399V96H134.767ZM128.879 85.12V36.864L140.015 30.976H140.143V85.12H128.879ZM156.399 96V41.856H167.663V96H156.399ZM179.891 85.12V0.255997H191.027L191.155 85.12H179.891ZM185.651 96L179.891 85.248V85.12H206.643V96H185.651ZM206.643 96V41.856H217.907V90.112L206.771 96H206.643ZM191.155 41.856V30.976H212.147L217.907 41.728V41.856H191.155ZM240.893 41.856V30.976H262.525L268.413 41.728V41.856H240.893ZM235.517 96L229.629 85.248V85.12H257.149V96H235.517ZM229.629 85.12V36.864L240.765 30.976H240.893V85.12H229.629ZM257.149 96V41.856H268.413V96H257.149ZM306.241 121.856V30.976H317.505V116.096L306.369 121.856H306.241ZM284.097 121.856L280.513 113.152V113.024H306.241V121.856H284.097ZM286.401 95.232L280.513 84.48V84.352H306.241V95.232H286.401ZM280.513 84.352V34.56L291.649 30.464H291.777V84.352H280.513ZM340.143 41.856V30.976H361.775L367.663 41.728V41.856H340.143ZM334.767 96L328.879 85.248V85.12H356.399V96H334.767ZM328.879 85.12V36.864L340.015 30.976H340.143V85.12H328.879ZM356.399 96V41.856H367.663V96H356.399Z"
          fill="#C44569"/>
    <path d="M7.88 40.96L5.89318 41.1892L6.0975 42.96H7.88V40.96ZM6.728 30.976V28.976H4.48396L4.74118 31.2052L6.728 30.976ZM26.056 30.976L27.773 29.9503L27.1909 28.976H26.056V30.976ZM31.944 40.832H33.944V40.2801L33.661 39.8063L31.944 40.832ZM31.944 40.96V42.96H33.944V40.96H31.944ZM20.68 88.448L18.8207 89.1848L19.4409 90.7499L21.0888 90.4058L20.68 88.448ZM1.608 40.32L-0.145951 39.3589L-0.597557 40.1831L-0.251331 41.0568L1.608 40.32ZM6.728 30.976L8.54069 30.1309L6.8719 26.5514L4.97405 30.0149L6.728 30.976ZM32.328 85.888H34.328V85.4447L34.1407 85.0429L32.328 85.888ZM32.328 86.016L32.7368 87.9738L34.328 87.6415V86.016H32.328ZM6.984 96L5.27689 97.042L5.86164 98H6.984V96ZM0.968 86.144H-1.032V86.7062L-0.739111 87.186L0.968 86.144ZM0.968 86.016V84.016H-1.032V86.016H0.968ZM32.328 86.016L34.0507 87.032L35.8294 84.016H32.328V86.016ZM26.44 96V98H27.5824L28.1627 97.016L26.44 96ZM9.86682 40.7308L8.71482 30.7467L4.74118 31.2052L5.89318 41.1892L9.86682 40.7308ZM6.728 32.976H26.056V28.976H6.728V32.976ZM24.3391 32.0017L30.227 41.8577L33.661 39.8063L27.773 29.9503L24.3391 32.0017ZM29.944 40.832V40.96H33.944V40.832H29.944ZM31.944 38.96H7.88V42.96H31.944V38.96ZM22.5393 87.7112L3.46733 39.5832L-0.251331 41.0568L18.8207 89.1848L22.5393 87.7112ZM3.36195 41.2811L8.48195 31.9371L4.97405 30.0149L-0.145951 39.3589L3.36195 41.2811ZM4.91531 31.8211L30.5153 86.7331L34.1407 85.0429L8.54069 30.1309L4.91531 31.8211ZM30.328 85.888V86.016H34.328V85.888H30.328ZM31.9192 84.0582L20.2712 86.4902L21.0888 90.4058L32.7368 87.9738L31.9192 84.0582ZM8.69111 94.958L2.67511 85.102L-0.739111 87.186L5.27689 97.042L8.69111 94.958ZM2.968 86.144V86.016H-1.032V86.144H2.968ZM0.968 88.016H32.328V84.016H0.968V88.016ZM30.6053 85L24.7173 94.984L28.1627 97.016L34.0507 87.032L30.6053 85ZM26.44 94H6.984V98H26.44V94ZM68.89 96H66.89V98H68.89V96ZM68.89 30.976V28.976H66.89V30.976H68.89ZM80.154 30.976H82.154V28.976H80.154V30.976ZM80.154 96V98H82.154V96H80.154ZM48.026 96L46.2718 96.9606L46.841 98H48.026V96ZM42.138 85.248H40.138V85.7598L40.3838 86.2086L42.138 85.248ZM42.138 85.12V83.12H40.138V85.12H42.138ZM68.89 85.12H70.89V83.12H68.89V85.12ZM68.89 96V98H70.89V96H68.89ZM42.138 85.12H40.138V87.12H42.138V85.12ZM42.138 33.92L41.5055 32.0226L40.138 32.4785V33.92H42.138ZM53.274 30.208V28.208H52.9494L52.6415 28.3106L53.274 30.208ZM53.402 30.208H55.402V28.208H53.402V30.208ZM53.402 85.12V87.12H55.402V85.12H53.402ZM70.89 96V30.976H66.89V96H70.89ZM68.89 32.976H80.154V28.976H68.89V32.976ZM78.154 30.976V96H82.154V30.976H78.154ZM80.154 94H69.018V98H80.154V94ZM69.018 94H68.89V98H69.018V94ZM49.7802 95.0394L43.8922 84.2874L40.3838 86.2086L46.2718 96.9606L49.7802 95.0394ZM44.138 85.248V85.12H40.138V85.248H44.138ZM42.138 87.12H68.89V83.12H42.138V87.12ZM66.89 85.12V96H70.89V85.12H66.89ZM68.89 94H48.026V98H68.89V94ZM44.138 85.12V33.92H40.138V85.12H44.138ZM42.7705 35.8174L53.9065 32.1054L52.6415 28.3106L41.5055 32.0226L42.7705 35.8174ZM53.274 32.208H53.402V28.208H53.274V32.208ZM51.402 30.208V85.12H55.402V30.208H51.402ZM53.402 83.12H42.138V87.12H53.402V83.12ZM91.888 96H89.888V98H91.888V96ZM91.888 36.864L90.9532 35.0959L89.888 35.6591V36.864H91.888ZM103.024 30.976V28.976H102.528L102.089 29.2079L103.024 30.976ZM103.152 30.976H105.152V28.976H103.152V30.976ZM103.152 96V98H105.152V96H103.152ZM103.152 41.856H101.152V43.856H103.152V41.856ZM103.152 30.976V28.976H101.152V30.976H103.152ZM116.464 30.976L118.209 29.9994L117.637 28.976H116.464V30.976ZM122.48 41.728H124.48V41.2065L124.225 40.7514L122.48 41.728ZM122.48 41.856V43.856H124.48V41.856H122.48ZM93.888 96V36.864H89.888V96H93.888ZM92.8228 38.6321L103.959 32.7441L102.089 29.2079L90.9532 35.0959L92.8228 38.6321ZM103.024 32.976H103.152V28.976H103.024V32.976ZM101.152 30.976V96H105.152V30.976H101.152ZM103.152 94H91.888V98H103.152V94ZM105.152 41.856V30.976H101.152V41.856H105.152ZM103.152 32.976H116.464V28.976H103.152V32.976ZM114.719 31.9526L120.735 42.7046L124.225 40.7514L118.209 29.9994L114.719 31.9526ZM120.48 41.728V41.856H124.48V41.728H120.48ZM122.48 39.856H103.152V43.856H122.48V39.856ZM140.143 41.856H138.143V43.856H140.143V41.856ZM140.143 30.976V28.976H138.143V30.976H140.143ZM161.775 30.976L163.529 30.0154L162.96 28.976H161.775V30.976ZM167.663 41.728H169.663V41.2162L169.417 40.7674L167.663 41.728ZM167.663 41.856V43.856H169.663V41.856H167.663ZM134.767 96L133.013 96.9606L133.582 98H134.767V96ZM128.879 85.248H126.879V85.7598L127.125 86.2086L128.879 85.248ZM128.879 85.12V83.12H126.879V85.12H128.879ZM156.399 85.12H158.399V83.12H156.399V85.12ZM156.399 96V98H158.399V96H156.399ZM128.879 85.12H126.879V87.12H128.879V85.12ZM128.879 36.864L127.944 35.0959L126.879 35.6591V36.864H128.879ZM140.015 30.976V28.976H139.519L139.08 29.2079L140.015 30.976ZM140.143 30.976H142.143V28.976H140.143V30.976ZM140.143 85.12V87.12H142.143V85.12H140.143ZM156.399 96H154.399V98H156.399V96ZM156.399 41.856V39.856H154.399V41.856H156.399ZM167.663 41.856H169.663V39.856H167.663V41.856ZM167.663 96V98H169.663V96H167.663ZM142.143 41.856V30.976H138.143V41.856H142.143ZM140.143 32.976H161.775V28.976H140.143V32.976ZM160.021 31.9366L165.909 42.6886L169.417 40.7674L163.529 30.0154L160.021 31.9366ZM165.663 41.728V41.856H169.663V41.728H165.663ZM167.663 39.856H140.143V43.856H167.663V39.856ZM136.521 95.0394L130.633 84.2874L127.125 86.2086L133.013 96.9606L136.521 95.0394ZM130.879 85.248V85.12H126.879V85.248H130.879ZM128.879 87.12H156.399V83.12H128.879V87.12ZM154.399 85.12V96H158.399V85.12H154.399ZM156.399 94H134.767V98H156.399V94ZM130.879 85.12V36.864H126.879V85.12H130.879ZM129.814 38.6321L140.95 32.7441L139.08 29.2079L127.944 35.0959L129.814 38.6321ZM140.015 32.976H140.143V28.976H140.015V32.976ZM138.143 30.976V85.12H142.143V30.976H138.143ZM140.143 83.12H128.879V87.12H140.143V83.12ZM158.399 96V41.856H154.399V96H158.399ZM156.399 43.856H167.663V39.856H156.399V43.856ZM165.663 41.856V96H169.663V41.856H165.663ZM167.663 94H156.399V98H167.663V94ZM179.891 85.12H177.891V87.12H179.891V85.12ZM179.891 0.255997V-1.744H177.891V0.255997H179.891ZM191.027 0.255997L193.027 0.25298L193.024 -1.744H191.027V0.255997ZM191.155 85.12V87.12H193.158L193.155 85.117L191.155 85.12ZM185.651 96L183.888 96.9444L184.454 98H185.651V96ZM179.891 85.248H177.891V85.75L178.128 86.1924L179.891 85.248ZM179.891 85.12V83.12H177.891V85.12H179.891ZM206.643 85.12H208.643V83.12H206.643V85.12ZM206.643 96V98H208.643V96H206.643ZM206.643 96H204.643V98H206.643V96ZM206.643 41.856V39.856H204.643V41.856H206.643ZM217.907 41.856H219.907V39.856H217.907V41.856ZM217.907 90.112L218.842 91.8801L219.907 91.3169V90.112H217.907ZM206.771 96V98H207.267L207.706 97.7681L206.771 96ZM191.155 41.856H189.155V43.856H191.155V41.856ZM191.155 30.976V28.976H189.155V30.976H191.155ZM212.147 30.976L213.91 30.0316L213.344 28.976H212.147V30.976ZM217.907 41.728H219.907V41.226L219.67 40.7836L217.907 41.728ZM217.907 41.856V43.856H219.907V41.856H217.907ZM181.891 85.12V0.255997H177.891V85.12H181.891ZM179.891 2.256H191.027V-1.744H179.891V2.256ZM189.027 0.259013L189.155 85.123L193.155 85.117L193.027 0.25298L189.027 0.259013ZM191.155 83.12H179.891V87.12H191.155V83.12ZM187.414 95.0556L181.654 84.3036L178.128 86.1924L183.888 96.9444L187.414 95.0556ZM181.891 85.248V85.12H177.891V85.248H181.891ZM179.891 87.12H206.643V83.12H179.891V87.12ZM204.643 85.12V96H208.643V85.12H204.643ZM206.643 94H185.651V98H206.643V94ZM208.643 96V41.856H204.643V96H208.643ZM206.643 43.856H217.907V39.856H206.643V43.856ZM215.907 41.856V90.112H219.907V41.856H215.907ZM216.972 88.3439L205.836 94.2319L207.706 97.7681L218.842 91.8801L216.972 88.3439ZM206.771 94H206.643V98H206.771V94ZM193.155 41.856V30.976H189.155V41.856H193.155ZM191.155 32.976H212.147V28.976H191.155V32.976ZM210.384 31.9204L216.144 42.6724L219.67 40.7836L213.91 30.0316L210.384 31.9204ZM215.907 41.728V41.856H219.907V41.728H215.907ZM217.907 39.856H191.155V43.856H217.907V39.856ZM240.893 41.856H238.893V43.856H240.893V41.856ZM240.893 30.976V28.976H238.893V30.976H240.893ZM262.525 30.976L264.279 30.0154L263.71 28.976H262.525V30.976ZM268.413 41.728H270.413V41.2162L270.167 40.7674L268.413 41.728ZM268.413 41.856V43.856H270.413V41.856H268.413ZM235.517 96L233.763 96.9606L234.332 98H235.517V96ZM229.629 85.248H227.629V85.7598L227.875 86.2086L229.629 85.248ZM229.629 85.12V83.12H227.629V85.12H229.629ZM257.149 85.12H259.149V83.12H257.149V85.12ZM257.149 96V98H259.149V96H257.149ZM229.629 85.12H227.629V87.12H229.629V85.12ZM229.629 36.864L228.694 35.0959L227.629 35.6591V36.864H229.629ZM240.765 30.976V28.976H240.269L239.83 29.2079L240.765 30.976ZM240.893 30.976H242.893V28.976H240.893V30.976ZM240.893 85.12V87.12H242.893V85.12H240.893ZM257.149 96H255.149V98H257.149V96ZM257.149 41.856V39.856H255.149V41.856H257.149ZM268.413 41.856H270.413V39.856H268.413V41.856ZM268.413 96V98H270.413V96H268.413ZM242.893 41.856V30.976H238.893V41.856H242.893ZM240.893 32.976H262.525V28.976H240.893V32.976ZM260.771 31.9366L266.659 42.6886L270.167 40.7674L264.279 30.0154L260.771 31.9366ZM266.413 41.728V41.856H270.413V41.728H266.413ZM268.413 39.856H240.893V43.856H268.413V39.856ZM237.271 95.0394L231.383 84.2874L227.875 86.2086L233.763 96.9606L237.271 95.0394ZM231.629 85.248V85.12H227.629V85.248H231.629ZM229.629 87.12H257.149V83.12H229.629V87.12ZM255.149 85.12V96H259.149V85.12H255.149ZM257.149 94H235.517V98H257.149V94ZM231.629 85.12V36.864H227.629V85.12H231.629ZM230.564 38.6321L241.7 32.7441L239.83 29.2079L228.694 35.0959L230.564 38.6321ZM240.765 32.976H240.893V28.976H240.765V32.976ZM238.893 30.976V85.12H242.893V30.976H238.893ZM240.893 83.12H229.629V87.12H240.893V83.12ZM259.149 96V41.856H255.149V96H259.149ZM257.149 43.856H268.413V39.856H257.149V43.856ZM266.413 41.856V96H270.413V41.856H266.413ZM268.413 94H257.149V98H268.413V94ZM306.241 121.856H304.241V123.856H306.241V121.856ZM306.241 30.976V28.976H304.241V30.976H306.241ZM317.505 30.976H319.505V28.976H317.505V30.976ZM317.505 116.096L318.424 117.872L319.505 117.313V116.096H317.505ZM306.369 121.856V123.856H306.856L307.288 123.632L306.369 121.856ZM284.097 121.856L282.248 122.618L282.758 123.856H284.097V121.856ZM280.513 113.152H278.513V113.548L278.664 113.913L280.513 113.152ZM280.513 113.024V111.024H278.513V113.024H280.513ZM306.241 113.024H308.241V111.024H306.241V113.024ZM306.241 121.856V123.856H308.241V121.856H306.241ZM286.401 95.232L284.647 96.1926L285.216 97.232H286.401V95.232ZM280.513 84.48H278.513V84.9918L278.759 85.4406L280.513 84.48ZM280.513 84.352V82.352H278.513V84.352H280.513ZM306.241 84.352H308.241V82.352H306.241V84.352ZM306.241 95.232V97.232H308.241V95.232H306.241ZM280.513 84.352H278.513V86.352H280.513V84.352ZM280.513 34.56L279.823 32.6829L278.513 33.1646V34.56H280.513ZM291.649 30.464V28.464H291.293L290.959 28.5869L291.649 30.464ZM291.777 30.464H293.777V28.464H291.777V30.464ZM291.777 84.352V86.352H293.777V84.352H291.777ZM308.241 121.856V30.976H304.241V121.856H308.241ZM306.241 32.976H317.505V28.976H306.241V32.976ZM315.505 30.976V116.096H319.505V30.976H315.505ZM316.586 114.32L305.45 120.08L307.288 123.632L318.424 117.872L316.586 114.32ZM306.369 119.856H306.241V123.856H306.369V119.856ZM285.946 121.095L282.362 112.391L278.664 113.913L282.248 122.618L285.946 121.095ZM282.513 113.152V113.024H278.513V113.152H282.513ZM280.513 115.024H306.241V111.024H280.513V115.024ZM304.241 113.024V121.856H308.241V113.024H304.241ZM306.241 119.856H284.097V123.856H306.241V119.856ZM288.155 94.2714L282.267 83.5194L278.759 85.4406L284.647 96.1926L288.155 94.2714ZM282.513 84.48V84.352H278.513V84.48H282.513ZM280.513 86.352H306.241V82.352H280.513V86.352ZM304.241 84.352V95.232H308.241V84.352H304.241ZM306.241 93.232H286.401V97.232H306.241V93.232ZM282.513 84.352V34.56H278.513V84.352H282.513ZM281.203 36.4371L292.339 32.3411L290.959 28.5869L279.823 32.6829L281.203 36.4371ZM291.649 32.464H291.777V28.464H291.649V32.464ZM289.777 30.464V84.352H293.777V30.464H289.777ZM291.777 82.352H280.513V86.352H291.777V82.352ZM340.143 41.856H338.143V43.856H340.143V41.856ZM340.143 30.976V28.976H338.143V30.976H340.143ZM361.775 30.976L363.529 30.0154L362.96 28.976H361.775V30.976ZM367.663 41.728H369.663V41.2162L369.417 40.7674L367.663 41.728ZM367.663 41.856V43.856H369.663V41.856H367.663ZM334.767 96L333.013 96.9606L333.582 98H334.767V96ZM328.879 85.248H326.879V85.7598L327.125 86.2086L328.879 85.248ZM328.879 85.12V83.12H326.879V85.12H328.879ZM356.399 85.12H358.399V83.12H356.399V85.12ZM356.399 96V98H358.399V96H356.399ZM328.879 85.12H326.879V87.12H328.879V85.12ZM328.879 36.864L327.944 35.0959L326.879 35.6591V36.864H328.879ZM340.015 30.976V28.976H339.519L339.08 29.2079L340.015 30.976ZM340.143 30.976H342.143V28.976H340.143V30.976ZM340.143 85.12V87.12H342.143V85.12H340.143ZM356.399 96H354.399V98H356.399V96ZM356.399 41.856V39.856H354.399V41.856H356.399ZM367.663 41.856H369.663V39.856H367.663V41.856ZM367.663 96V98H369.663V96H367.663ZM342.143 41.856V30.976H338.143V41.856H342.143ZM340.143 32.976H361.775V28.976H340.143V32.976ZM360.021 31.9366L365.909 42.6886L369.417 40.7674L363.529 30.0154L360.021 31.9366ZM365.663 41.728V41.856H369.663V41.728H365.663ZM367.663 39.856H340.143V43.856H367.663V39.856ZM336.521 95.0394L330.633 84.2874L327.125 86.2086L333.013 96.9606L336.521 95.0394ZM330.879 85.248V85.12H326.879V85.248H330.879ZM328.879 87.12H356.399V83.12H328.879V87.12ZM354.399 85.12V96H358.399V85.12H354.399ZM356.399 94H334.767V98H356.399V94ZM330.879 85.12V36.864H326.879V85.12H330.879ZM329.814 38.6321L340.95 32.7441L339.08 29.2079L327.944 35.0959L329.814 38.6321ZM340.015 32.976H340.143V28.976H340.015V32.976ZM338.143 30.976V85.12H342.143V30.976H338.143ZM340.143 83.12H328.879V87.12H340.143V83.12ZM358.399 96V41.856H354.399V96H358.399ZM356.399 43.856H367.663V39.856H356.399V43.856ZM365.663 41.856V96H369.663V41.856H365.663ZM367.663 94H356.399V98H367.663V94Z"
          fill="#4B4949"/>
</svg>
